<svg width="44" height="36" viewBox="0 0 44 36" fill="none" xmlns="http://www.w3.org/2000/svg">
<path d="M26 1.78785C26 0.752316 26.842 -0.0974161 27.872 0.00902407C36.9335 0.945387 44 8.60388 44 17.9129C44 27.2218 36.9335 34.8803 27.872 35.8167C26.842 35.9231 26 35.0734 26 34.0379V32.6855C26 32.3969 25.766 32.1629 25.4773 32.1629C25.2794 32.1629 25.0984 32.2747 25.0098 32.4518L24.2236 34.0242C24.1242 34.2235 23.8333 34.2032 23.7627 33.992L23.4821 33.1501C23.3276 32.6868 22.6724 32.6868 22.5179 33.1501L22.2373 33.9919C22.1583 34.2291 21.8184 34.216 21.7578 33.9734C21.5823 33.2722 20.5778 33.2964 20.4362 34.0052L20.2451 34.9617C20.1948 35.2131 19.8438 35.2351 19.7627 34.992L18.9279 32.4884C18.8631 32.294 18.6811 32.1629 18.4762 32.1629C18.2132 32.1629 18 32.376 18 32.639V34.0379C18 35.0734 17.158 35.9231 16.128 35.8167C7.06654 34.8803 0 27.2218 0 17.9129C0 8.60388 7.06654 0.945387 16.128 0.00902411C17.158 -0.0974161 18 0.752316 18 1.78785V3.18668C18 3.44966 18.2132 3.66285 18.4762 3.66285C18.6811 3.66285 18.8631 3.53172 18.9279 3.33731L19.7627 0.833748C19.8438 0.590556 20.1948 0.612625 20.2451 0.864022L20.4362 1.82054C20.5778 2.52931 21.5823 2.55346 21.7578 1.8523C21.8184 1.60971 22.1583 1.59661 22.2373 1.83382L22.5179 2.67561C22.6724 3.13889 23.3276 3.13889 23.4821 2.67561L23.7627 1.83375C23.8333 1.62251 24.1242 1.60223 24.2236 1.80152L25.0098 3.37392C25.0984 3.551 25.2794 3.66285 25.4773 3.66285C25.766 3.66285 26 3.42884 26 3.14018V1.78785ZM28.8618 8.33085C28.2437 8.14659 27.583 8.34958 27.1304 8.80912C26.0965 9.85904 25.3366 10.7982 24.7803 11.8142C23.9537 13.3238 23.5128 15.1232 23.5 17.9197C23.5108 20.7037 23.2285 22.9849 22.1934 25.117C21.3667 26.8197 20.1083 28.3241 18.3456 29.8947C18.1276 30.089 18 30.3658 18 30.6577V30.9772C18 31.3559 18.307 31.6629 18.6856 31.6629H19.0006C19.1081 31.6629 19.2035 31.7317 19.2373 31.8337C19.4285 32.4074 20.2564 32.3559 20.375 31.7629L20.7071 30.1029C20.735 29.9632 20.856 29.8616 20.9984 29.8582C21.1409 29.8547 21.2667 29.9506 21.3013 30.0889L21.4749 30.7839C21.6376 31.4353 22.5501 31.4706 22.7627 30.8337C22.8387 30.6057 23.1613 30.6057 23.2373 30.8337L23.5301 31.7125C23.7205 32.284 24.5067 32.3401 24.7764 31.8015C24.8189 31.7165 24.9057 31.6629 25.0007 31.6629H25.2866C25.6806 31.6629 26 31.3435 26 30.9495V29.7879C26 28.7523 26.8472 27.9312 27.8648 27.7393C32.4965 26.8657 36 22.7984 36 17.9129C36 13.3847 32.9899 9.56153 28.8618 8.33085ZM19.2373 3.99195C19.2035 4.09398 19.1081 4.16285 19.0006 4.16285H18.6856C18.307 4.16285 18 4.46981 18 4.84846V6.03785C18 7.07338 17.1528 7.89449 16.1352 8.08642C11.5035 8.96003 8 13.0273 8 17.9129C8 22.4997 11.0887 26.3621 15.2994 27.5402C15.8861 27.7044 16.5098 27.5242 16.9501 27.1032C18.1815 25.9256 18.9728 24.8803 19.4941 23.8064C20.2395 22.2711 20.5109 20.5193 20.5 17.9187V17.906L20.5088 17.3289C20.5795 14.4902 21.0841 12.3195 22.1494 10.3738C23.0116 8.79908 24.2051 7.44645 25.6603 6.04439C25.8759 5.83657 26 5.55072 26 5.2512V4.87624C26 4.48225 25.6806 4.16285 25.2866 4.16285H25.0007C24.9057 4.16285 24.8189 4.10917 24.7764 4.02418C24.5067 3.48558 23.7205 3.54171 23.5301 4.11316L23.2373 4.99195C23.1613 5.22 22.8387 5.22 22.7627 4.99195C22.5501 4.35508 21.6376 4.39041 21.4749 5.04181L21.3013 5.73685C21.2667 5.87512 21.1409 5.97096 20.9984 5.96754C20.856 5.96411 20.735 5.86246 20.7071 5.72278L20.375 4.06275C20.2564 3.46979 19.4285 3.41827 19.2373 3.99195Z" fill="#2EBCFE"/>
</svg>
